<?xml version="1.0" encoding="UTF-8" standalone="no"?>
<!-- Created with Inkscape (http://www.inkscape.org/) -->

<svg
   width="739.9787"
   height="163.52934"
   viewBox="0 0 195.78602 43.267137"
   version="1.1"
   id="svg5"
   inkscape:version="1.2.2 (732a01da63, 2022-12-09)"
   sodipodi:docname="WesternOnion-Masthead.svg"
   inkscape:export-filename="..\..\..\..\proj\pk-santa\PyKOB\Documentation\Telegram\WesternOnion-Masthead.svg"
   inkscape:export-xdpi="96"
   inkscape:export-ydpi="96"
   xmlns:inkscape="http://www.inkscape.org/namespaces/inkscape"
   xmlns:sodipodi="http://sodipodi.sourceforge.net/DTD/sodipodi-0.dtd"
   xmlns="http://www.w3.org/2000/svg"
   xmlns:svg="http://www.w3.org/2000/svg">
  <sodipodi:namedview
     id="namedview7"
     pagecolor="#ffffff"
     bordercolor="#000000"
     borderopacity="0.25"
     inkscape:showpageshadow="2"
     inkscape:pageopacity="0.0"
     inkscape:pagecheckerboard="0"
     inkscape:deskcolor="#d1d1d1"
     inkscape:document-units="mm"
     showgrid="false"
     inkscape:zoom="1.1893044"
     inkscape:cx="644.49438"
     inkscape:cy="249.30539"
     inkscape:window-width="1536"
     inkscape:window-height="890"
     inkscape:window-x="-6"
     inkscape:window-y="-6"
     inkscape:window-maximized="1"
     inkscape:current-layer="layer1" />
  <defs
     id="defs2" />
  <g
     inkscape:label="Layer 1"
     inkscape:groupmode="layer"
     id="layer1"
     transform="translate(-73.83152,-6.645288)">
    <g
       aria-label="R. B. Black"
       id="text640"
       style="font-size:4.23333px;font-family:Verdana;-inkscape-font-specification:'Verdana, Normal';vector-effect:non-scaling-stroke;stroke:#010101;stroke-width:0.264583;-inkscape-stroke:hairline">
      <path
         d="M 76.597253,40.934292 H 76.06602 l -1.029393,-1.223697 h -0.576709 v 1.223697 h -0.409277 v -3.077846 h 0.861962 q 0.279053,0 0.465088,0.03721 0.186035,0.03514 0.334863,0.128158 0.167431,0.105419 0.260449,0.26665 0.09508,0.159163 0.09508,0.405143 0,0.332796 -0.167431,0.558105 -0.167432,0.223242 -0.460954,0.33693 z m -0.957046,-2.21175 q 0,-0.132291 -0.04754,-0.233577 -0.04547,-0.103353 -0.152962,-0.173633 -0.08888,-0.05994 -0.210839,-0.08268 -0.121957,-0.0248 -0.287321,-0.0248 h -0.481624 v 1.161685 h 0.413411 q 0.194303,0 0.338997,-0.03307 0.144694,-0.03514 0.24598,-0.128158 0.09302,-0.08682 0.136426,-0.198437 0.04548,-0.113688 0.04548,-0.287321 z"
         id="path810" />
      <path
         d="m 77.597708,40.934292 h -0.494026 v -0.589111 h 0.494026 z"
         id="path812" />
      <path
         d="m 82.343668,39.98758 q 0,0.229444 -0.08682,0.405143 -0.08682,0.1757 -0.233578,0.289388 -0.173632,0.136426 -0.382405,0.194303 -0.206705,0.05788 -0.527099,0.05788 h -1.091405 v -3.077846 h 0.911571 q 0.33693,0 0.504362,0.02481 0.167431,0.0248 0.320393,0.103353 0.169499,0.08888 0.24598,0.229443 0.07648,0.138492 0.07648,0.332796 0,0.219108 -0.111621,0.374137 -0.111621,0.152962 -0.297656,0.245979 v 0.01654 q 0.312125,0.06408 0.491959,0.274918 0.179834,0.208773 0.179834,0.529166 z m -0.68833,-1.386994 q 0,-0.111621 -0.03721,-0.188102 -0.03721,-0.07648 -0.119889,-0.124023 -0.09715,-0.05581 -0.235644,-0.06821 -0.138493,-0.01447 -0.343131,-0.01447 h -0.487825 v 0.888833 h 0.529166 q 0.192236,0 0.305924,-0.0186 0.113688,-0.02067 0.21084,-0.08268 0.09715,-0.06201 0.136425,-0.159164 0.04134,-0.09922 0.04134,-0.233577 z m 0.262517,1.403531 q 0,-0.186035 -0.05581,-0.295589 -0.05581,-0.109554 -0.202571,-0.186035 -0.09922,-0.05168 -0.241846,-0.06615 -0.14056,-0.01654 -0.343131,-0.01654 h -0.642854 v 1.145148 h 0.541568 q 0.268717,0 0.440283,-0.02687 0.171566,-0.02894 0.28112,-0.103353 0.115755,-0.08062 0.169498,-0.183968 0.05374,-0.103353 0.05374,-0.26665 z"
         id="path814" />
      <path
         d="m 83.486749,40.934292 h -0.494026 v -0.589111 h 0.494026 z"
         id="path816" />
      <path
         d="m 88.232709,39.98758 q 0,0.229444 -0.08682,0.405143 -0.08682,0.1757 -0.233578,0.289388 -0.173632,0.136426 -0.382405,0.194303 -0.206706,0.05788 -0.527099,0.05788 h -1.091405 v -3.077846 h 0.911571 q 0.33693,0 0.504362,0.02481 0.167431,0.0248 0.320393,0.103353 0.169499,0.08888 0.24598,0.229443 0.07648,0.138492 0.07648,0.332796 0,0.219108 -0.111621,0.374137 -0.111621,0.152962 -0.297656,0.245979 v 0.01654 q 0.312125,0.06408 0.491959,0.274918 0.179834,0.208773 0.179834,0.529166 z m -0.68833,-1.386994 q 0,-0.111621 -0.03721,-0.188102 -0.03721,-0.07648 -0.119889,-0.124023 -0.09715,-0.05581 -0.235644,-0.06821 -0.138493,-0.01447 -0.343131,-0.01447 H 86.32068 v 0.888833 h 0.529166 q 0.192236,0 0.305924,-0.0186 0.113688,-0.02067 0.21084,-0.08268 0.09715,-0.06201 0.136425,-0.159164 0.04134,-0.09922 0.04134,-0.233577 z m 0.262516,1.403531 q 0,-0.186035 -0.05581,-0.295589 -0.05581,-0.109554 -0.202571,-0.186035 -0.09922,-0.05168 -0.241846,-0.06615 -0.14056,-0.01654 -0.343131,-0.01654 h -0.642854 v 1.145148 h 0.541568 q 0.268717,0 0.440283,-0.02687 0.171566,-0.02894 0.281119,-0.103353 0.115756,-0.08062 0.169499,-0.183968 0.05374,-0.103353 0.05374,-0.26665 z"
         id="path818" />
      <path
         d="M 89.175287,40.934292 H 88.78668 v -3.216339 h 0.388607 z"
         id="path820" />
      <path
         d="m 91.738435,40.934292 h -0.386539 v -0.24598 q -0.05168,0.03514 -0.14056,0.09922 -0.08682,0.06201 -0.169498,0.09922 -0.09715,0.04754 -0.223242,0.07855 -0.126091,0.03307 -0.295589,0.03307 -0.312126,0 -0.529167,-0.206706 -0.21704,-0.206706 -0.21704,-0.527099 0,-0.262516 0.111621,-0.423747 0.113688,-0.163297 0.32246,-0.256314 0.21084,-0.09302 0.506429,-0.126091 0.295589,-0.03307 0.634586,-0.04961 v -0.05994 q 0,-0.132291 -0.04754,-0.219108 -0.04548,-0.08682 -0.132292,-0.136425 -0.08268,-0.04754 -0.198437,-0.06408 -0.115755,-0.01654 -0.241846,-0.01654 -0.152962,0 -0.341064,0.04134 -0.188102,0.03927 -0.388606,0.115755 h -0.02067 V 38.675 q 0.113688,-0.03101 0.328662,-0.06821 0.214974,-0.03721 0.423746,-0.03721 0.243913,0 0.423747,0.04134 0.181901,0.03927 0.314192,0.136426 0.130225,0.09509 0.198437,0.24598 0.06821,0.150895 0.06821,0.374137 z m -0.386539,-0.56844 v -0.642855 q -0.177767,0.01034 -0.419612,0.03101 -0.239779,0.02067 -0.380339,0.05995 -0.167431,0.04754 -0.270784,0.148828 -0.103353,0.09922 -0.103353,0.274918 0,0.198437 0.11989,0.299723 0.119889,0.09922 0.365868,0.09922 0.204639,0 0.374137,-0.07855 0.169499,-0.08061 0.314193,-0.192236 z"
         id="path822" />
      <path
         d="m 94.194098,40.789598 q -0.194303,0.09302 -0.370003,0.144694 -0.173632,0.05168 -0.370002,0.05168 -0.250114,0 -0.458887,-0.07235 -0.208772,-0.07441 -0.3576,-0.223242 -0.150895,-0.148828 -0.233578,-0.376204 -0.08268,-0.227376 -0.08268,-0.531233 0,-0.566373 0.310058,-0.888834 0.312126,-0.322461 0.822689,-0.322461 0.198437,0 0.388606,0.05581 0.192236,0.05581 0.351399,0.136426 v 0.432014 h -0.02067 q -0.177767,-0.138493 -0.367936,-0.212907 -0.188102,-0.07441 -0.367936,-0.07441 -0.330729,0 -0.522965,0.223242 -0.190169,0.221175 -0.190169,0.651123 0,0.417545 0.186035,0.642854 0.188102,0.223242 0.527099,0.223242 0.117822,0 0.239779,-0.03101 0.121956,-0.03101 0.219107,-0.08062 0.08475,-0.04341 0.159164,-0.09095 0.07441,-0.04961 0.117822,-0.08475 h 0.02067 z"
         id="path824" />
      <path
         d="m 96.788252,40.934292 h -0.51263 l -0.92604,-1.01079 -0.252181,0.239778 v 0.771012 h -0.388607 v -3.216339 h 0.388607 v 2.062922 l 1.122411,-1.155484 h 0.489892 l -1.072802,1.0666 z"
         id="path826" />
    </g>
    <g
       aria-label="PRESIDENT"
       id="text640-1"
       style="font-size:2.11667px;font-family:Verdana;-inkscape-font-specification:'Verdana, Normal';vector-effect:non-scaling-stroke;stroke:#010101;stroke-width:0.264583;-inkscape-stroke:hairline">
      <path
         d="m 74.970467,42.993873 q 0,0.102319 -0.03617,0.19017 -0.03514,0.08682 -0.09922,0.150895 -0.07958,0.07958 -0.188103,0.119889 -0.10852,0.03927 -0.273885,0.03927 H 74.16845 v 0.573609 h -0.204639 v -1.538927 h 0.417546 q 0.138493,0 0.234612,0.02377 0.09612,0.02274 0.170532,0.07235 0.08785,0.05891 0.135393,0.146761 0.04857,0.08785 0.04857,0.222209 z m -0.212907,0.0052 q 0,-0.07958 -0.02791,-0.138493 -0.0279,-0.05891 -0.08475,-0.09612 -0.04961,-0.03204 -0.113688,-0.04548 -0.06305,-0.01447 -0.160197,-0.01447 h -0.202572 v 0.61495 h 0.1726 q 0.124023,0 0.201538,-0.0217 0.07752,-0.02274 0.126091,-0.07131 0.04858,-0.04961 0.06821,-0.104386 0.02067,-0.05478 0.02067,-0.12299 z"
         id="path829" />
      <path
         d="m 76.513528,44.067711 h -0.265617 l -0.514698,-0.61185 h -0.288355 v 0.61185 h -0.204639 v -1.538927 h 0.430982 q 0.139527,0 0.232544,0.0186 0.09302,0.01757 0.167432,0.06408 0.08372,0.05271 0.130225,0.133325 0.04754,0.07958 0.04754,0.202572 0,0.166398 -0.08372,0.279053 -0.08372,0.111622 -0.230477,0.168466 z m -0.478524,-1.105877 q 0,-0.06615 -0.02377,-0.116789 -0.02274,-0.05168 -0.07648,-0.08682 -0.04444,-0.02997 -0.10542,-0.04134 -0.06098,-0.0124 -0.143661,-0.0124 h -0.240812 v 0.580843 h 0.206706 q 0.09715,0 0.169499,-0.01654 0.07235,-0.01757 0.12299,-0.06408 0.04651,-0.04341 0.06821,-0.09922 0.02274,-0.05684 0.02274,-0.14366 z"
         id="path831" />
      <path
         d="m 77.725859,44.067711 h -1.013893 v -1.538927 h 1.013893 v 0.181902 h -0.809254 v 0.42168 h 0.809254 v 0.181901 h -0.809254 v 0.571543 h 0.809254 z"
         id="path833" />
      <path
         d="m 79.168667,43.628461 q 0,0.08992 -0.04237,0.177767 -0.04134,0.08785 -0.116789,0.148828 -0.08268,0.06615 -0.19327,0.103353 -0.109554,0.03721 -0.264583,0.03721 -0.166399,0 -0.299724,-0.03101 -0.132292,-0.03101 -0.269752,-0.09198 v -0.256315 h 0.01447 q 0.116789,0.09715 0.269751,0.149861 0.152963,0.05271 0.287322,0.05271 0.190169,0 0.295589,-0.07131 0.106454,-0.07131 0.106454,-0.19017 0,-0.102319 -0.05064,-0.150895 -0.04961,-0.04858 -0.151929,-0.07545 -0.07751,-0.02067 -0.168465,-0.03411 -0.08992,-0.01344 -0.191204,-0.03411 -0.204639,-0.04341 -0.303857,-0.147795 -0.09819,-0.10542 -0.09819,-0.273885 0,-0.19327 0.163298,-0.31626 0.163298,-0.124024 0.414446,-0.124024 0.162264,0 0.297656,0.03101 0.135393,0.03101 0.239779,0.07648 v 0.241846 h -0.01447 q -0.08785,-0.07441 -0.231511,-0.12299 -0.142627,-0.04961 -0.292489,-0.04961 -0.164331,0 -0.264584,0.06821 -0.09922,0.06821 -0.09922,0.1757 0,0.09612 0.04961,0.150895 0.04961,0.05478 0.174666,0.08372 0.06615,0.01447 0.188103,0.03514 0.121957,0.02067 0.206706,0.04237 0.171566,0.04548 0.258383,0.13746 0.08682,0.09198 0.08682,0.257349 z"
         id="path835" />
      <path
         d="m 80.039933,44.067711 h -0.607716 v -0.157097 h 0.201539 v -1.224733 h -0.201539 v -0.157097 h 0.607716 v 0.157097 h -0.201538 v 1.224733 h 0.201538 z"
         id="path837" />
      <path
         d="m 81.688414,43.299798 q 0,0.209807 -0.09198,0.380339 -0.09095,0.170533 -0.24288,0.264584 -0.10542,0.06511 -0.235645,0.09405 -0.129191,0.02894 -0.341065,0.02894 h -0.388607 v -1.538927 h 0.384473 q 0.22531,0 0.357601,0.03307 0.133326,0.03204 0.22531,0.08888 0.157097,0.09819 0.244947,0.261483 0.08785,0.163298 0.08785,0.387574 z m -0.213941,-0.0031 q 0,-0.180867 -0.06305,-0.304891 -0.06305,-0.124024 -0.188103,-0.195337 -0.09095,-0.05168 -0.19327,-0.07131 -0.10232,-0.02067 -0.244947,-0.02067 h -0.192236 v 1.187526 h 0.192236 q 0.147795,0 0.257349,-0.0217 0.110588,-0.0217 0.202572,-0.08062 0.114722,-0.07338 0.171566,-0.19327 0.05788,-0.119889 0.05788,-0.299724 z"
         id="path839" />
      <path
         d="m 83.033036,44.067711 h -1.013893 v -1.538927 h 1.013893 v 0.181902 h -0.809254 v 0.42168 h 0.809254 v 0.181901 h -0.809254 v 0.571543 h 0.809254 z"
         id="path841" />
      <path
         d="M 84.531655,44.067711 H 84.27844 l -0.729672,-1.376662 v 1.376662 h -0.191203 v -1.538927 h 0.317294 l 0.665593,1.256773 v -1.256773 h 0.191203 z"
         id="path843" />
      <path
         d="m 86.038542,42.710686 h -0.549838 v 1.357025 h -0.204639 v -1.357025 h -0.549838 v -0.181902 h 1.304315 z"
         id="path845" />
    </g>
    <g
       aria-label="CHAIRMAN OF THE BOARD"
       id="text640-1-9"
       style="font-size:2.11667px;font-family:Verdana;-inkscape-font-specification:'Verdana, Normal';vector-effect:non-scaling-stroke;stroke:#010101;stroke-width:0.264583;-inkscape-stroke:hairline">
      <path
         d="m 157.99849,43.149415 q -0.0568,0.0248 -0.10335,0.04651 -0.0455,0.0217 -0.11989,0.04548 -0.0631,0.01964 -0.13746,0.03307 -0.0734,0.01447 -0.16226,0.01447 -0.16744,0 -0.3049,-0.04651 -0.13642,-0.04754 -0.23771,-0.147794 -0.0992,-0.09819 -0.15503,-0.249081 -0.0558,-0.151929 -0.0558,-0.352434 0,-0.19017 0.0538,-0.340031 0.0537,-0.149862 0.15502,-0.253215 0.0982,-0.100253 0.23668,-0.152963 0.13953,-0.05271 0.30903,-0.05271 0.12402,0 0.24701,0.02997 0.12403,0.02997 0.27492,0.105421 v 0.242879 h -0.0155 q -0.12713,-0.106453 -0.25218,-0.155029 -0.12506,-0.04858 -0.26769,-0.04858 -0.11679,0 -0.21084,0.03824 -0.093,0.03721 -0.1664,0.116789 -0.0713,0.07752 -0.11162,0.196371 -0.0393,0.117822 -0.0393,0.272852 0,0.162264 0.0434,0.279053 0.0444,0.116789 0.11369,0.19017 0.0723,0.07648 0.16846,0.113688 0.0971,0.03617 0.20464,0.03617 0.14779,0 0.27699,-0.05064 0.12919,-0.05064 0.24184,-0.151929 h 0.0145 z"
         id="path848" />
      <path
         d="m 159.46507,43.261036 h -0.20464 v -0.753444 h -0.76791 v 0.753444 h -0.20464 v -1.538927 h 0.20464 v 0.603582 h 0.76791 v -0.603582 h 0.20464 z"
         id="path850" />
      <path
         d="m 161.09185,43.261036 h -0.21808 l -0.15089,-0.428915 h -0.6656 l -0.15089,0.428915 h -0.20774 l 0.56017,-1.538927 h 0.27285 z m -0.43202,-0.604615 -0.26975,-0.755511 -0.27078,0.755511 z"
         id="path852" />
      <path
         d="m 161.86803,43.261036 h -0.60772 v -0.157097 h 0.20154 v -1.224733 h -0.20154 v -0.157097 h 0.60772 v 0.157097 h -0.20154 v 1.224733 h 0.20154 z"
         id="path854" />
      <path
         d="m 163.48964,43.261036 h -0.26562 l -0.5147,-0.61185 h -0.28835 v 0.61185 h -0.20464 v -1.538927 h 0.43098 q 0.13953,0 0.23254,0.0186 0.093,0.01757 0.16744,0.06408 0.0837,0.05271 0.13022,0.133325 0.0475,0.07958 0.0475,0.202572 0,0.166399 -0.0837,0.279053 -0.0837,0.111622 -0.23048,0.168466 z m -0.47853,-1.105877 q 0,-0.06615 -0.0238,-0.116789 -0.0227,-0.05168 -0.0765,-0.08682 -0.0444,-0.02997 -0.10542,-0.04134 -0.061,-0.0124 -0.14366,-0.0124 h -0.24081 v 0.580844 h 0.2067 q 0.0972,0 0.1695,-0.01654 0.0724,-0.01757 0.12299,-0.06408 0.0465,-0.04341 0.0682,-0.09922 0.0227,-0.05684 0.0227,-0.14366 z"
         id="path856" />
      <path
         d="m 165.05854,43.261036 h -0.20464 v -1.326019 l -0.42788,0.902272 h -0.12196 l -0.42478,-0.902272 v 1.326019 h -0.1912 v -1.538927 h 0.27905 l 0.41031,0.856797 0.39688,-0.856797 h 0.28422 z"
         id="path858" />
      <path
         d="m 166.68531,43.261036 h -0.21807 l -0.1509,-0.428915 h -0.66559 l -0.1509,0.428915 h -0.20774 l 0.56018,-1.538927 h 0.27285 z m -0.43201,-0.604615 -0.26975,-0.755511 -0.27079,0.755511 z"
         id="path860" />
      <path
         d="m 168.09298,43.261036 h -0.25321 l -0.72968,-1.376662 v 1.376662 h -0.1912 v -1.538927 h 0.31729 l 0.6656,1.256773 v -1.256773 h 0.1912 z"
         id="path862" />
      <path
         d="m 170.39362,41.898843 q 0.0941,0.103353 0.14366,0.253215 0.0506,0.149862 0.0506,0.340031 0,0.19017 -0.0517,0.341065 -0.0506,0.149862 -0.14263,0.250115 -0.0951,0.104386 -0.22531,0.157096 -0.12919,0.05271 -0.29559,0.05271 -0.16226,0 -0.29559,-0.05374 -0.13229,-0.05374 -0.22531,-0.156063 -0.093,-0.10232 -0.14366,-0.251148 -0.0496,-0.148828 -0.0496,-0.340032 0,-0.188102 0.0496,-0.33693 0.0496,-0.149862 0.14469,-0.256316 0.091,-0.101286 0.22531,-0.155029 0.1354,-0.05374 0.29456,-0.05374 0.16536,0 0.29662,0.05478 0.1323,0.05374 0.22428,0.153996 z m -0.0186,0.593246 q 0,-0.299723 -0.13436,-0.461988 -0.13436,-0.163297 -0.36691,-0.163297 -0.23461,0 -0.36897,0.163297 -0.13332,0.162265 -0.13332,0.461988 0,0.302825 0.13642,0.464056 0.13643,0.160197 0.36587,0.160197 0.22945,0 0.36484,-0.160197 0.13643,-0.161231 0.13643,-0.464056 z"
         id="path864" />
      <path
         d="m 171.89534,41.904011 h -0.77825 v 0.434082 h 0.66869 v 0.181902 h -0.66869 v 0.741041 h -0.20464 v -1.538927 h 0.98289 z"
         id="path866" />
      <path
         d="m 173.97067,41.904011 h -0.54984 v 1.357025 h -0.20464 v -1.357025 h -0.54984 v -0.181902 h 1.30432 z"
         id="path868" />
      <path
         d="m 175.35456,43.261036 h -0.20464 v -0.753444 h -0.76791 v 0.753444 h -0.20464 v -1.538927 h 0.20464 v 0.603582 h 0.76791 v -0.603582 h 0.20464 z"
         id="path870" />
      <path
         d="m 176.78187,43.261036 h -1.01389 v -1.538927 h 1.01389 v 0.181902 h -0.80926 v 0.42168 h 0.80926 v 0.181901 h -0.80926 v 0.571543 h 0.80926 z"
         id="path872" />
      <path
         d="m 179.01119,42.787679 q 0,0.114722 -0.0434,0.202572 -0.0434,0.08785 -0.11679,0.144694 -0.0868,0.06821 -0.19121,0.09715 -0.10335,0.02894 -0.26355,0.02894 h -0.5457 v -1.538927 h 0.45579 q 0.16846,0 0.25218,0.0124 0.0837,0.0124 0.16019,0.05168 0.0847,0.04444 0.12299,0.114722 0.0383,0.06925 0.0383,0.166399 0,0.109554 -0.0558,0.187068 -0.0558,0.07648 -0.14882,0.122991 v 0.0083 q 0.15606,0.03204 0.24598,0.137459 0.0899,0.104387 0.0899,0.264584 z m -0.34416,-0.693499 q 0,-0.05581 -0.0186,-0.09405 -0.0186,-0.03824 -0.0599,-0.06201 -0.0486,-0.0279 -0.11782,-0.03411 -0.0693,-0.0072 -0.17157,-0.0072 h -0.24391 v 0.444418 h 0.26458 q 0.0961,0 0.15296,-0.0093 0.0568,-0.01034 0.10542,-0.04134 0.0486,-0.03101 0.0682,-0.07958 0.0207,-0.04961 0.0207,-0.116789 z m 0.13126,0.701767 q 0,-0.09302 -0.0279,-0.147795 -0.0279,-0.05478 -0.10128,-0.09302 -0.0496,-0.02584 -0.12093,-0.03307 -0.0703,-0.0083 -0.17156,-0.0083 h -0.32143 v 0.572575 h 0.27078 q 0.13436,0 0.22015,-0.01344 0.0858,-0.01447 0.14056,-0.05168 0.0579,-0.04031 0.0847,-0.09198 0.0269,-0.05168 0.0269,-0.133326 z"
         id="path874" />
      <path
         d="m 180.44883,41.898843 q 0.0941,0.103353 0.14366,0.253215 0.0506,0.149862 0.0506,0.340031 0,0.19017 -0.0517,0.341065 -0.0506,0.149862 -0.14263,0.250115 -0.0951,0.104386 -0.22531,0.157096 -0.12919,0.05271 -0.29558,0.05271 -0.16227,0 -0.29559,-0.05374 -0.1323,-0.05374 -0.22531,-0.156063 -0.093,-0.10232 -0.14366,-0.251148 -0.0496,-0.148828 -0.0496,-0.340032 0,-0.188102 0.0496,-0.33693 0.0496,-0.149862 0.14469,-0.256316 0.0909,-0.101286 0.22531,-0.155029 0.13539,-0.05374 0.29456,-0.05374 0.16536,0 0.29662,0.05478 0.13229,0.05374 0.22427,0.153996 z m -0.0186,0.593246 q 0,-0.299723 -0.13436,-0.461988 -0.13436,-0.163297 -0.3669,-0.163297 -0.23461,0 -0.36897,0.163297 -0.13333,0.162265 -0.13333,0.461988 0,0.302825 0.13643,0.464056 0.13642,0.160197 0.36587,0.160197 0.22944,0 0.36483,-0.160197 0.13643,-0.161231 0.13643,-0.464056 z"
         id="path876" />
      <path
         d="m 182.18103,43.261036 h -0.21807 l -0.1509,-0.428915 h -0.66559 l -0.1509,0.428915 h -0.20774 l 0.56018,-1.538927 h 0.27285 z m -0.43201,-0.604615 -0.26975,-0.755511 -0.27079,0.755511 z"
         id="path878" />
      <path
         d="m 183.68792,43.261036 h -0.26562 l -0.5147,-0.61185 h -0.28835 v 0.61185 h -0.20464 v -1.538927 h 0.43098 q 0.13953,0 0.23255,0.0186 0.093,0.01757 0.16743,0.06408 0.0837,0.05271 0.13022,0.133325 0.0475,0.07958 0.0475,0.202572 0,0.166399 -0.0837,0.279053 -0.0837,0.111622 -0.23048,0.168466 z m -0.47853,-1.105877 q 0,-0.06615 -0.0238,-0.116789 -0.0227,-0.05168 -0.0765,-0.08682 -0.0444,-0.02997 -0.10542,-0.04134 -0.061,-0.0124 -0.14366,-0.0124 h -0.24081 v 0.580844 h 0.2067 q 0.0972,0 0.1695,-0.01654 0.0724,-0.01757 0.12299,-0.06408 0.0465,-0.04341 0.0682,-0.09922 0.0227,-0.05684 0.0227,-0.14366 z"
         id="path880" />
      <path
         d="m 185.18654,42.493123 q 0,0.209807 -0.092,0.380339 -0.0909,0.170533 -0.24288,0.264584 -0.10542,0.06511 -0.23564,0.09405 -0.12919,0.02894 -0.34107,0.02894 h -0.3886 v -1.538927 h 0.38447 q 0.22531,0 0.3576,0.03307 0.13333,0.03204 0.22531,0.08888 0.1571,0.09819 0.24495,0.261483 0.0879,0.163298 0.0879,0.387574 z m -0.21394,-0.0031 q 0,-0.180867 -0.0631,-0.304891 -0.0631,-0.124024 -0.1881,-0.195337 -0.0909,-0.05168 -0.19327,-0.07131 -0.10232,-0.02067 -0.24495,-0.02067 h -0.19224 v 1.187526 h 0.19224 q 0.1478,0 0.25735,-0.0217 0.11059,-0.0217 0.20257,-0.08062 0.11472,-0.07338 0.17157,-0.19327 0.0579,-0.119889 0.0579,-0.299724 z"
         id="path882" />
    </g>
    <g
       aria-label="FIRST VICE PRESIDENT"
       id="text640-1-9-0"
       style="font-size:2.11667px;font-family:Verdana;-inkscape-font-specification:'Verdana, Normal';vector-effect:non-scaling-stroke;stroke:#010101;stroke-width:0.264583;-inkscape-stroke:hairline">
      <path
         d="M 243.34525,41.792778 H 242.567 v 0.434083 h 0.66869 v 0.181901 H 242.567 v 0.741041 h -0.20464 v -1.538926 h 0.98289 z"
         id="path885" />
      <path
         d="m 244.12143,43.149803 h -0.60772 v -0.157096 h 0.20154 v -1.224734 h -0.20154 v -0.157096 h 0.60772 v 0.157096 h -0.20154 v 1.224734 h 0.20154 z"
         id="path887" />
      <path
         d="m 245.74304,43.149803 h -0.26562 l -0.5147,-0.61185 h -0.28835 v 0.61185 h -0.20464 v -1.538926 h 0.43098 q 0.13953,0 0.23255,0.0186 0.093,0.01757 0.16743,0.06408 0.0837,0.05271 0.13022,0.133325 0.0475,0.07958 0.0475,0.202572 0,0.166399 -0.0837,0.279054 -0.0837,0.111621 -0.23048,0.168465 z m -0.47853,-1.105877 q 0,-0.06615 -0.0238,-0.116789 -0.0227,-0.05168 -0.0765,-0.08682 -0.0444,-0.02997 -0.10542,-0.04134 -0.061,-0.0124 -0.14366,-0.0124 h -0.24081 v 0.580844 h 0.2067 q 0.0972,0 0.1695,-0.01654 0.0724,-0.01757 0.12299,-0.06408 0.0465,-0.04341 0.0682,-0.09922 0.0227,-0.05685 0.0227,-0.143661 z"
         id="path889" />
      <path
         d="m 247.05976,42.710553 q 0,0.08992 -0.0424,0.177767 -0.0413,0.08785 -0.11679,0.148828 -0.0827,0.06615 -0.19327,0.103353 -0.10955,0.03721 -0.26458,0.03721 -0.1664,0 -0.29973,-0.03101 -0.13229,-0.03101 -0.26975,-0.09199 v -0.256315 h 0.0145 q 0.11679,0.09715 0.26975,0.149862 0.15297,0.05271 0.28733,0.05271 0.19016,0 0.29558,-0.07131 0.10646,-0.07131 0.10646,-0.190169 0,-0.10232 -0.0506,-0.150896 -0.0496,-0.04858 -0.15193,-0.07545 -0.0775,-0.02067 -0.16847,-0.03411 -0.0899,-0.01344 -0.1912,-0.03411 -0.20464,-0.04341 -0.30386,-0.147795 -0.0982,-0.10542 -0.0982,-0.273886 0,-0.19327 0.1633,-0.31626 0.1633,-0.124024 0.41445,-0.124024 0.16226,0 0.29765,0.03101 0.1354,0.03101 0.23978,0.07648 v 0.241847 h -0.0145 q -0.0879,-0.07442 -0.23151,-0.122991 -0.14262,-0.04961 -0.29249,-0.04961 -0.16433,0 -0.26458,0.06821 -0.0992,0.06821 -0.0992,0.1757 0,0.09612 0.0496,0.150896 0.0496,0.05478 0.17467,0.08372 0.0661,0.01447 0.1881,0.03514 0.12196,0.02067 0.20671,0.04237 0.17156,0.04548 0.25838,0.13746 0.0868,0.09198 0.0868,0.257349 z"
         id="path891" />
      <path
         d="m 248.48603,41.792778 h -0.54984 v 1.357025 h -0.20464 v -1.357025 h -0.54984 v -0.181901 h 1.30432 z"
         id="path893" />
      <path
         d="m 250.65024,41.610877 -0.56017,1.538926 h -0.27286 l -0.56017,-1.538926 h 0.21911 l 0.48266,1.353924 0.48266,-1.353924 z"
         id="path895" />
      <path
         d="m 251.42642,43.149803 h -0.60771 v -0.157096 h 0.20153 v -1.224734 h -0.20153 v -0.157096 h 0.60771 v 0.157096 h -0.20154 v 1.224734 h 0.20154 z"
         id="path897" />
      <path
         d="m 252.96328,43.038182 q -0.0568,0.02481 -0.10335,0.04651 -0.0455,0.0217 -0.11989,0.04548 -0.0631,0.01964 -0.13746,0.03307 -0.0734,0.01447 -0.16227,0.01447 -0.16743,0 -0.30489,-0.04651 -0.13642,-0.04754 -0.23771,-0.147795 -0.0992,-0.09819 -0.15503,-0.249081 -0.0558,-0.151929 -0.0558,-0.352434 0,-0.190169 0.0537,-0.340031 0.0538,-0.149862 0.15503,-0.253215 0.0982,-0.100253 0.23668,-0.152963 0.13953,-0.05271 0.30903,-0.05271 0.12402,0 0.24701,0.02997 0.12403,0.02997 0.27492,0.10542 v 0.242879 h -0.0155 q -0.12713,-0.106453 -0.25218,-0.155029 -0.12506,-0.04858 -0.26769,-0.04858 -0.11679,0 -0.21084,0.03824 -0.093,0.03721 -0.1664,0.116788 -0.0713,0.07751 -0.11162,0.196371 -0.0393,0.117823 -0.0393,0.272852 0,0.162264 0.0434,0.279053 0.0444,0.116789 0.11368,0.19017 0.0724,0.07648 0.16847,0.113688 0.0971,0.03617 0.20464,0.03617 0.14779,0 0.27699,-0.05064 0.12919,-0.05064 0.24184,-0.151929 h 0.0145 z"
         id="path899" />
      <path
         d="m 254.26656,43.149803 h -1.01389 v -1.538926 h 1.01389 v 0.181901 h -0.80925 v 0.42168 h 0.80925 v 0.181902 h -0.80925 v 0.571542 h 0.80925 z"
         id="path901" />
      <path
         d="m 256.34189,42.075965 q 0,0.10232 -0.0362,0.19017 -0.0351,0.08682 -0.0992,0.150895 -0.0796,0.07958 -0.1881,0.11989 -0.10852,0.03927 -0.27389,0.03927 h -0.20464 v 0.573609 h -0.20464 v -1.538926 h 0.41755 q 0.13849,0 0.23461,0.02377 0.0961,0.02274 0.17053,0.07235 0.0879,0.05891 0.1354,0.146761 0.0486,0.08785 0.0486,0.222209 z m -0.21291,0.0052 q 0,-0.07958 -0.0279,-0.138493 -0.0279,-0.05891 -0.0848,-0.09612 -0.0496,-0.03204 -0.11369,-0.04548 -0.063,-0.01447 -0.1602,-0.01447 h -0.20257 v 0.61495 h 0.1726 q 0.12402,0 0.20154,-0.0217 0.0775,-0.02274 0.12609,-0.07131 0.0486,-0.04961 0.0682,-0.104387 0.0207,-0.05478 0.0207,-0.12299 z"
         id="path903" />
      <path
         d="m 257.88495,43.149803 h -0.26562 l -0.51469,-0.61185 h -0.28836 v 0.61185 h -0.20464 v -1.538926 h 0.43098 q 0.13953,0 0.23255,0.0186 0.093,0.01757 0.16743,0.06408 0.0837,0.05271 0.13022,0.133325 0.0476,0.07958 0.0476,0.202572 0,0.166399 -0.0837,0.279054 -0.0837,0.111621 -0.23048,0.168465 z m -0.47852,-1.105877 q 0,-0.06615 -0.0238,-0.116789 -0.0227,-0.05168 -0.0765,-0.08682 -0.0444,-0.02997 -0.10542,-0.04134 -0.061,-0.0124 -0.14366,-0.0124 h -0.24081 v 0.580844 h 0.20671 q 0.0971,0 0.1695,-0.01654 0.0723,-0.01757 0.12299,-0.06408 0.0465,-0.04341 0.0682,-0.09922 0.0227,-0.05685 0.0227,-0.143661 z"
         id="path905" />
      <path
         d="m 259.09728,43.149803 h -1.01389 v -1.538926 h 1.01389 v 0.181901 h -0.80925 v 0.42168 h 0.80925 v 0.181902 h -0.80925 v 0.571542 h 0.80925 z"
         id="path907" />
      <path
         d="m 260.54009,42.710553 q 0,0.08992 -0.0424,0.177767 -0.0414,0.08785 -0.11679,0.148828 -0.0827,0.06615 -0.19327,0.103353 -0.10956,0.03721 -0.26459,0.03721 -0.1664,0 -0.29972,-0.03101 -0.13229,-0.03101 -0.26975,-0.09199 v -0.256315 h 0.0145 q 0.11679,0.09715 0.26975,0.149862 0.15296,0.05271 0.28732,0.05271 0.19017,0 0.29559,-0.07131 0.10645,-0.07131 0.10645,-0.190169 0,-0.10232 -0.0506,-0.150896 -0.0496,-0.04858 -0.15193,-0.07545 -0.0775,-0.02067 -0.16846,-0.03411 -0.0899,-0.01344 -0.19121,-0.03411 -0.20464,-0.04341 -0.30385,-0.147795 -0.0982,-0.10542 -0.0982,-0.273886 0,-0.19327 0.1633,-0.31626 0.1633,-0.124024 0.41444,-0.124024 0.16227,0 0.29766,0.03101 0.13539,0.03101 0.23978,0.07648 v 0.241847 h -0.0145 q -0.0879,-0.07442 -0.23151,-0.122991 -0.14263,-0.04961 -0.29249,-0.04961 -0.16433,0 -0.26458,0.06821 -0.0992,0.06821 -0.0992,0.1757 0,0.09612 0.0496,0.150896 0.0496,0.05478 0.17466,0.08372 0.0661,0.01447 0.18811,0.03514 0.12195,0.02067 0.2067,0.04237 0.17157,0.04548 0.25838,0.13746 0.0868,0.09198 0.0868,0.257349 z"
         id="path909" />
      <path
         d="m 261.41136,43.149803 h -0.60772 v -0.157096 h 0.20154 v -1.224734 h -0.20154 v -0.157096 h 0.60772 v 0.157096 h -0.20154 v 1.224734 h 0.20154 z"
         id="path911" />
      <path
         d="m 263.05984,42.38189 q 0,0.209807 -0.092,0.380339 -0.091,0.170533 -0.24288,0.264584 -0.10542,0.06511 -0.23564,0.09405 -0.12919,0.02894 -0.34107,0.02894 h -0.3886 v -1.538926 h 0.38447 q 0.22531,0 0.3576,0.03307 0.13333,0.03204 0.22531,0.08888 0.1571,0.09819 0.24495,0.261483 0.0879,0.163298 0.0879,0.387574 z m -0.21394,-0.0031 q 0,-0.180868 -0.063,-0.304892 -0.063,-0.124023 -0.1881,-0.195337 -0.0909,-0.05168 -0.19327,-0.07131 -0.10232,-0.02067 -0.24495,-0.02067 h -0.19224 v 1.187526 h 0.19224 q 0.1478,0 0.25735,-0.0217 0.11059,-0.0217 0.20257,-0.08062 0.11472,-0.07338 0.17157,-0.193271 0.0579,-0.119889 0.0579,-0.299723 z"
         id="path913" />
      <path
         d="m 264.40446,43.149803 h -1.01389 v -1.538926 h 1.01389 v 0.181901 h -0.80925 v 0.42168 h 0.80925 v 0.181902 h -0.80925 v 0.571542 h 0.80925 z"
         id="path915" />
      <path
         d="m 265.90308,43.149803 h -0.25322 l -0.72967,-1.376662 v 1.376662 h -0.1912 v -1.538926 h 0.31729 l 0.66559,1.256772 v -1.256772 h 0.19121 z"
         id="path917" />
      <path
         d="m 267.40997,41.792778 h -0.54984 v 1.357025 h -0.20464 v -1.357025 h -0.54984 v -0.181901 h 1.30432 z"
         id="path919" />
    </g>
    <g
       aria-label="Oldcomb Carlton"
       id="text640-4"
       style="font-size:4.23333px;font-family:Verdana;-inkscape-font-specification:'Verdana, Normal';vector-effect:non-scaling-stroke;stroke:#010101;stroke-width:0.264583;-inkscape-stroke:hairline">
      <path
         d="m 155.99761,37.116414 q 0.1881,0.206706 0.28732,0.506429 0.10128,0.299723 0.10128,0.680061 0,0.380338 -0.10335,0.682129 -0.10128,0.299723 -0.28525,0.500227 -0.19017,0.208773 -0.45062,0.314192 -0.25838,0.10542 -0.59118,0.10542 -0.32453,0 -0.59118,-0.107487 -0.26458,-0.107486 -0.45061,-0.312125 -0.18604,-0.204638 -0.28733,-0.502294 -0.0992,-0.297656 -0.0992,-0.680062 0,-0.376204 0.0992,-0.67386 0.0992,-0.299723 0.28939,-0.51263 0.1819,-0.202571 0.45062,-0.310058 0.27078,-0.107487 0.58911,-0.107487 0.33073,0 0.59325,0.109554 0.26458,0.107487 0.44855,0.307991 z m -0.0372,1.18649 q 0,-0.599446 -0.26872,-0.923974 -0.26871,-0.326594 -0.7338,-0.326594 -0.46922,0 -0.73794,0.326594 -0.26665,0.324528 -0.26665,0.923974 0,0.605648 0.27285,0.928108 0.27285,0.320394 0.73174,0.320394 0.45888,0 0.72967,-0.320394 0.27285,-0.32246 0.27285,-0.928108 z"
         id="path922" />
      <path
         d="m 157.397,39.840794 h -0.3886 v -3.216339 h 0.3886 z"
         id="path924" />
      <path
         d="m 160.0387,39.840794 h -0.38861 v -0.241846 q -0.16743,0.144694 -0.34933,0.225309 -0.1819,0.08061 -0.39481,0.08061 -0.41341,0 -0.65732,-0.318326 -0.24184,-0.318327 -0.24184,-0.882633 0,-0.293522 0.0827,-0.522965 0.0847,-0.229443 0.22737,-0.390673 0.14056,-0.157097 0.3266,-0.239779 0.1881,-0.08268 0.3886,-0.08268 0.18191,0 0.32247,0.03927 0.14056,0.03721 0.29558,0.117822 v -1.000455 h 0.38861 z m -0.38861,-0.568441 v -1.324982 q -0.15709,-0.07028 -0.28112,-0.09715 -0.12402,-0.02687 -0.27078,-0.02687 -0.32659,0 -0.5085,0.227377 -0.1819,0.227376 -0.1819,0.644921 0,0.411344 0.14056,0.626318 0.14056,0.212906 0.45062,0.212906 0.16537,0 0.33486,-0.07235 0.1695,-0.07441 0.31626,-0.19017 z"
         id="path926" />
      <path
         d="m 162.5109,39.6961 q -0.1943,0.09302 -0.37,0.144694 -0.17364,0.05168 -0.37001,0.05168 -0.25011,0 -0.45888,-0.07235 -0.20878,-0.07441 -0.3576,-0.223242 -0.1509,-0.148828 -0.23358,-0.376204 -0.0827,-0.227376 -0.0827,-0.531233 0,-0.566374 0.31006,-0.888834 0.31212,-0.322461 0.82268,-0.322461 0.19844,0 0.38861,0.05581 0.19224,0.05581 0.3514,0.136425 V 38.1024 h -0.0207 q -0.17777,-0.138493 -0.36794,-0.212907 -0.1881,-0.07441 -0.36793,-0.07441 -0.33073,0 -0.52297,0.223242 -0.19017,0.221175 -0.19017,0.651123 0,0.417545 0.18604,0.642854 0.1881,0.223242 0.5271,0.223242 0.11782,0 0.23978,-0.03101 0.12195,-0.03101 0.2191,-0.08062 0.0847,-0.04341 0.15917,-0.09095 0.0744,-0.04961 0.11782,-0.08475 h 0.0207 z"
         id="path928" />
      <path
         d="m 164.9769,38.687377 q 0,0.564306 -0.28939,0.890901 -0.28939,0.326594 -0.77515,0.326594 -0.48989,0 -0.77928,-0.326594 -0.28732,-0.326595 -0.28732,-0.890901 0,-0.564307 0.28732,-0.890901 0.28939,-0.328662 0.77928,-0.328662 0.48576,0 0.77515,0.328662 0.28939,0.326594 0.28939,0.890901 z m -0.40101,0 q 0,-0.448551 -0.1757,-0.665592 -0.1757,-0.219108 -0.48783,-0.219108 -0.31626,0 -0.49196,0.219108 -0.17363,0.217041 -0.17363,0.665592 0,0.434081 0.1757,0.65939 0.1757,0.223242 0.48989,0.223242 0.31006,0 0.48576,-0.221175 0.17777,-0.223242 0.17777,-0.661457 z"
         id="path930" />
      <path
         d="m 168.94771,39.840794 h -0.38861 v -1.314648 q 0,-0.148828 -0.0145,-0.28732 -0.0124,-0.138493 -0.0558,-0.221175 -0.0475,-0.08888 -0.13642,-0.134359 -0.0889,-0.04547 -0.25632,-0.04547 -0.16329,0 -0.32659,0.08268 -0.1633,0.08062 -0.3266,0.206706 0.006,0.04754 0.0103,0.111621 0.004,0.06201 0.004,0.124023 v 1.477945 h -0.3886 v -1.314648 q 0,-0.152962 -0.0145,-0.289387 -0.0124,-0.138493 -0.0558,-0.221175 -0.0475,-0.08888 -0.13643,-0.132292 -0.0889,-0.04547 -0.25631,-0.04547 -0.15917,0 -0.3204,0.07855 -0.15916,0.07855 -0.31832,0.200504 v 1.723925 h -0.38861 v -2.308901 h 0.38861 v 0.256314 q 0.1819,-0.150895 0.36173,-0.235644 0.1819,-0.08475 0.38654,-0.08475 0.23565,0 0.39894,0.09922 0.16537,0.09922 0.24598,0.274918 0.23565,-0.198437 0.42995,-0.285254 0.1943,-0.08888 0.41548,-0.08888 0.38034,0 0.56017,0.23151 0.1819,0.229443 0.1819,0.642854 z"
         id="path932" />
      <path
         d="m 171.7279,38.668773 q 0,0.289388 -0.0827,0.520898 -0.0806,0.23151 -0.21911,0.388607 -0.14676,0.163297 -0.32246,0.245979 -0.1757,0.08061 -0.38654,0.08061 -0.19637,0 -0.34313,-0.04754 -0.14676,-0.04547 -0.28939,-0.124023 l -0.0248,0.107487 h -0.36381 v -3.216339 h 0.38861 v 1.149283 q 0.1633,-0.134359 0.34727,-0.219108 0.18396,-0.08682 0.41341,-0.08682 0.40927,0 0.64492,0.314192 0.23771,0.314193 0.23771,0.886767 z m -0.40101,0.01033 q 0,-0.413411 -0.13642,-0.626317 -0.13643,-0.214974 -0.44029,-0.214974 -0.1695,0 -0.34313,0.07441 -0.17363,0.07235 -0.32246,0.188102 v 1.322915 q 0.16537,0.07441 0.28319,0.103353 0.11989,0.02894 0.27078,0.02894 0.32246,0 0.50436,-0.21084 0.18397,-0.212906 0.18397,-0.665592 z"
         id="path934" />
      <path
         d="m 176.22995,39.617552 q -0.11369,0.04961 -0.20671,0.09302 -0.0909,0.04341 -0.23978,0.09095 -0.12609,0.03927 -0.27491,0.06615 -0.14677,0.02894 -0.32453,0.02894 -0.33487,0 -0.60978,-0.09302 -0.27286,-0.09508 -0.47543,-0.295589 -0.19843,-0.196371 -0.31006,-0.498161 -0.11162,-0.303857 -0.11162,-0.704866 0,-0.380338 0.10749,-0.680061 0.10749,-0.299723 0.31006,-0.506429 0.19637,-0.200504 0.47335,-0.305924 0.27906,-0.10542 0.61805,-0.10542 0.24805,0 0.49403,0.05994 0.24805,0.05994 0.54984,0.21084 v 0.485758 h -0.031 q -0.25425,-0.212907 -0.50436,-0.310059 -0.25011,-0.09715 -0.53537,-0.09715 -0.23357,0 -0.42168,0.07648 -0.18603,0.07441 -0.33279,0.233577 -0.14263,0.155029 -0.22324,0.392741 -0.0786,0.235644 -0.0786,0.545702 0,0.324528 0.0868,0.558105 0.0889,0.233578 0.22738,0.380339 0.14469,0.152962 0.33693,0.227376 0.1943,0.07235 0.40928,0.07235 0.29559,0 0.55397,-0.101286 0.25838,-0.101286 0.48369,-0.303857 h 0.0289 z"
         id="path936" />
      <path
         d="m 178.57192,39.840794 h -0.38654 v -0.24598 q -0.0517,0.03514 -0.14056,0.09922 -0.0868,0.06201 -0.1695,0.09922 -0.0971,0.04754 -0.22324,0.07855 -0.12609,0.03307 -0.29559,0.03307 -0.31212,0 -0.52916,-0.206705 -0.21704,-0.206706 -0.21704,-0.527099 0,-0.262516 0.11162,-0.423747 0.11368,-0.163297 0.32246,-0.256315 0.21084,-0.09302 0.50643,-0.12609 0.29558,-0.03307 0.63458,-0.04961 v -0.05994 q 0,-0.132292 -0.0475,-0.219108 -0.0455,-0.08682 -0.13229,-0.136426 -0.0827,-0.04754 -0.19844,-0.06408 -0.11575,-0.01654 -0.24185,-0.01654 -0.15296,0 -0.34106,0.04134 -0.1881,0.03927 -0.38861,0.115756 h -0.0207 v -0.394808 q 0.11369,-0.03101 0.32867,-0.06821 0.21497,-0.03721 0.42374,-0.03721 0.24391,0 0.42375,0.04134 0.1819,0.03927 0.31419,0.136426 0.13023,0.09508 0.19844,0.245979 0.0682,0.150896 0.0682,0.374138 z m -0.38654,-0.568441 v -0.642854 q -0.17777,0.01033 -0.41961,0.03101 -0.23978,0.02067 -0.38034,0.05994 -0.16743,0.04754 -0.27078,0.148828 -0.10336,0.09922 -0.10336,0.274919 0,0.198437 0.11989,0.299723 0.11989,0.09922 0.36587,0.09922 0.20464,0 0.37414,-0.07855 0.1695,-0.08061 0.31419,-0.192236 z"
         id="path938" />
      <path
         d="m 180.76093,37.955639 h -0.0207 q -0.0868,-0.02067 -0.1695,-0.02894 -0.0806,-0.01033 -0.19223,-0.01033 -0.17984,0 -0.34727,0.08062 -0.16743,0.07855 -0.32246,0.204639 v 1.639175 h -0.3886 v -2.308901 h 0.3886 v 0.341064 q 0.23151,-0.186035 0.40721,-0.262516 0.17777,-0.07855 0.36174,-0.07855 0.10128,0 0.14676,0.0062 0.0455,0.0041 0.13642,0.0186 z"
         id="path940" />
      <path
         d="m 181.51954,39.840794 h -0.3886 v -3.216339 h 0.3886 z"
         id="path942" />
      <path
         d="m 183.48738,39.820123 q -0.10955,0.02894 -0.23978,0.04754 -0.12816,0.0186 -0.22944,0.0186 -0.35347,0 -0.53744,-0.190169 -0.18396,-0.190169 -0.18396,-0.609782 v -1.227831 h -0.26252 v -0.326594 h 0.26252 v -0.663525 h 0.3886 v 0.663525 h 0.80202 v 0.326594 h -0.80202 v 1.052132 q 0,0.1819 0.008,0.285253 0.008,0.101286 0.0579,0.190169 0.0455,0.08268 0.12402,0.121957 0.0806,0.03721 0.24391,0.03721 0.0951,0 0.19844,-0.02687 0.10335,-0.02894 0.14883,-0.04754 h 0.0207 z"
         id="path944" />
      <path
         d="m 185.92444,38.687377 q 0,0.564306 -0.28939,0.890901 -0.28939,0.326594 -0.77515,0.326594 -0.48989,0 -0.77928,-0.326594 -0.28732,-0.326595 -0.28732,-0.890901 0,-0.564307 0.28732,-0.890901 0.28939,-0.328662 0.77928,-0.328662 0.48576,0 0.77515,0.328662 0.28939,0.326594 0.28939,0.890901 z m -0.40101,0 q 0,-0.448551 -0.1757,-0.665592 -0.1757,-0.219108 -0.48783,-0.219108 -0.31626,0 -0.49195,0.219108 -0.17364,0.217041 -0.17364,0.665592 0,0.434081 0.1757,0.65939 0.1757,0.223242 0.48989,0.223242 0.31006,0 0.48576,-0.221175 0.17777,-0.223242 0.17777,-0.661457 z"
         id="path946" />
      <path
         d="m 188.45658,39.840794 h -0.3886 v -1.314648 q 0,-0.159163 -0.0186,-0.297656 -0.0186,-0.140559 -0.0682,-0.219108 -0.0517,-0.08682 -0.14883,-0.128157 -0.0971,-0.04341 -0.25218,-0.04341 -0.15916,0 -0.3328,0.07855 -0.17363,0.07855 -0.33279,0.200504 v 1.723925 h -0.38861 v -2.308901 h 0.38861 v 0.256314 q 0.1819,-0.150895 0.3762,-0.235644 0.19431,-0.08475 0.39894,-0.08475 0.37414,0 0.57051,0.225309 0.19637,0.225309 0.19637,0.649055 z"
         id="path948" />
    </g>
    <g
       aria-label="J. C. Wontever"
       id="text640-4-5"
       style="font-size:4.23333px;font-family:Verdana;-inkscape-font-specification:'Verdana, Normal';vector-effect:non-scaling-stroke;stroke:#010101;stroke-width:0.264583;-inkscape-stroke:hairline">
      <path
         d="m 239.90155,38.595908 q 0,0.405143 -0.24805,0.624251 -0.24598,0.219108 -0.66145,0.219108 -0.0992,0 -0.26459,-0.0186 -0.16536,-0.01654 -0.27698,-0.04134 v -0.382405 h 0.0227 q 0.0847,0.02894 0.20877,0.05994 0.12402,0.03101 0.25425,0.03101 0.19017,0 0.30179,-0.04341 0.11368,-0.04341 0.16743,-0.124023 0.0558,-0.08268 0.0703,-0.202571 0.0165,-0.11989 0.0165,-0.276986 v -1.796271 h -0.65112 v -0.326595 h 1.0604 z"
         id="path951" />
      <path
         d="m 241.25961,39.395859 h -0.49403 v -0.589111 h 0.49403 z"
         id="path953" />
      <path
         d="m 246.06138,39.172617 q -0.11369,0.04961 -0.20671,0.09302 -0.0909,0.04341 -0.23978,0.09095 -0.12609,0.03927 -0.27492,0.06614 -0.14676,0.02894 -0.32452,0.02894 -0.33487,0 -0.60978,-0.09302 -0.27286,-0.09508 -0.47543,-0.295589 -0.19843,-0.19637 -0.31006,-0.498161 -0.11162,-0.303857 -0.11162,-0.704866 0,-0.380338 0.10749,-0.680061 0.10749,-0.299723 0.31006,-0.506428 0.19637,-0.200505 0.47335,-0.305925 0.27906,-0.105419 0.61805,-0.105419 0.24805,0 0.49403,0.05994 0.24805,0.05994 0.54984,0.21084 v 0.485758 h -0.031 q -0.25425,-0.212907 -0.50436,-0.310058 -0.25011,-0.09715 -0.53537,-0.09715 -0.23358,0 -0.42168,0.07648 -0.18603,0.07441 -0.33279,0.233577 -0.14263,0.155029 -0.22325,0.392741 -0.0785,0.235644 -0.0785,0.545702 0,0.324528 0.0868,0.558105 0.0889,0.233578 0.22738,0.380339 0.14469,0.152962 0.33693,0.227376 0.1943,0.07235 0.40928,0.07235 0.29558,0 0.55397,-0.101286 0.25838,-0.101286 0.48369,-0.303857 h 0.0289 z"
         id="path955" />
      <path
         d="m 247.24373,39.395859 h -0.49402 v -0.589111 h 0.49402 z"
         id="path957" />
      <path
         d="m 253.2506,36.318013 -0.79995,3.077846 h -0.46096 l -0.64699,-2.554881 -0.63252,2.554881 h -0.45061 l -0.81442,-3.077846 h 0.41961 l 0.64699,2.559015 0.63665,-2.559015 h 0.41548 l 0.64285,2.583819 0.64286,-2.583819 z"
         id="path959" />
      <path
         d="m 255.5843,38.242442 q 0,0.564306 -0.28939,0.890901 -0.28938,0.326594 -0.77514,0.326594 -0.48989,0 -0.77928,-0.326594 -0.28732,-0.326595 -0.28732,-0.890901 0,-0.564306 0.28732,-0.890901 0.28939,-0.328662 0.77928,-0.328662 0.48576,0 0.77514,0.328662 0.28939,0.326595 0.28939,0.890901 z m -0.40101,0 q 0,-0.448551 -0.1757,-0.665592 -0.1757,-0.219108 -0.48782,-0.219108 -0.31626,0 -0.49196,0.219108 -0.17363,0.217041 -0.17363,0.665592 0,0.434081 0.1757,0.65939 0.1757,0.223242 0.48989,0.223242 0.31006,0 0.48576,-0.221174 0.17776,-0.223242 0.17776,-0.661458 z"
         id="path961" />
      <path
         d="m 258.11644,39.395859 h -0.3886 v -1.314648 q 0,-0.159163 -0.0186,-0.297656 -0.0186,-0.140559 -0.0682,-0.219107 -0.0517,-0.08682 -0.14883,-0.128158 -0.0971,-0.04341 -0.25218,-0.04341 -0.15916,0 -0.33279,0.07855 -0.17364,0.07855 -0.3328,0.200504 v 1.723925 h -0.38861 v -2.308901 h 0.38861 v 0.256315 q 0.1819,-0.150895 0.37621,-0.235645 0.1943,-0.08475 0.39894,-0.08475 0.37413,0 0.5705,0.225309 0.19637,0.225309 0.19637,0.649055 z"
         id="path963" />
      <path
         d="m 260.06361,39.375188 q -0.10955,0.02894 -0.23978,0.04754 -0.12816,0.0186 -0.22944,0.0186 -0.35347,0 -0.53744,-0.190169 -0.18396,-0.190169 -0.18396,-0.609782 v -1.227831 h -0.26252 v -0.326594 h 0.26252 v -0.663525 h 0.3886 v 0.663525 h 0.80202 v 0.326594 h -0.80202 v 1.052132 q 0,0.181901 0.008,0.285253 0.008,0.101286 0.0579,0.19017 0.0455,0.08268 0.12402,0.121956 0.0806,0.03721 0.24391,0.03721 0.0951,0 0.19844,-0.02687 0.10335,-0.02894 0.14883,-0.04754 h 0.0207 z"
         id="path965" />
      <path
         d="m 262.46553,38.281716 h -1.70119 q 0,0.212907 0.0641,0.37207 0.0641,0.157096 0.1757,0.258382 0.10749,0.09922 0.25425,0.148828 0.14883,0.04961 0.32659,0.04961 0.23565,0 0.47336,-0.09302 0.23978,-0.09509 0.34106,-0.186035 h 0.0207 v 0.423746 q -0.19637,0.08268 -0.401,0.138493 -0.20464,0.05581 -0.42995,0.05581 -0.57464,0 -0.8971,-0.310058 -0.32247,-0.312126 -0.32247,-0.8847 0,-0.566373 0.308,-0.899169 0.31005,-0.332796 0.81442,-0.332796 0.46715,0 0.71933,0.272851 0.25425,0.272852 0.25425,0.775146 z m -0.37827,-0.297656 q -0.002,-0.305924 -0.15503,-0.473356 -0.1509,-0.167431 -0.46095,-0.167431 -0.31213,0 -0.49817,0.183968 -0.18396,0.183967 -0.20877,0.456819 z"
         id="path967" />
      <path
         d="m 265.05142,37.086958 -0.93431,2.308901 h -0.39068 l -0.9281,-2.308901 h 0.42168 l 0.7152,1.837612 0.709,-1.837612 z"
         id="path969" />
      <path
         d="m 267.4554,38.281716 h -1.70119 q 0,0.212907 0.0641,0.37207 0.0641,0.157096 0.1757,0.258382 0.10749,0.09922 0.25425,0.148828 0.14883,0.04961 0.3266,0.04961 0.23564,0 0.47335,-0.09302 0.23978,-0.09509 0.34107,-0.186035 h 0.0207 v 0.423746 q -0.19637,0.08268 -0.40101,0.138493 -0.20464,0.05581 -0.42995,0.05581 -0.57464,0 -0.8971,-0.310058 -0.32246,-0.312126 -0.32246,-0.8847 0,-0.566373 0.30799,-0.899169 0.31006,-0.332796 0.81442,-0.332796 0.46715,0 0.71933,0.272851 0.25425,0.272852 0.25425,0.775146 z m -0.37827,-0.297656 q -0.002,-0.305924 -0.15503,-0.473356 -0.15089,-0.167431 -0.46095,-0.167431 -0.31213,0 -0.49816,0.183968 -0.18397,0.183967 -0.20878,0.456819 z"
         id="path971" />
      <path
         d="m 269.48525,37.510704 h -0.0207 q -0.0868,-0.02067 -0.1695,-0.02894 -0.0806,-0.01034 -0.19223,-0.01034 -0.17984,0 -0.34727,0.08062 -0.16743,0.07855 -0.32246,0.204639 v 1.639175 h -0.38861 v -2.308901 h 0.38861 v 0.341064 q 0.23151,-0.186035 0.40721,-0.262516 0.17777,-0.07855 0.36173,-0.07855 0.10129,0 0.14676,0.0062 0.0455,0.0041 0.13643,0.0186 z"
         id="path973" />
    </g>
    <path
       style="vector-effect:non-scaling-stroke;fill:#000000;stroke:#010101;stroke-width:0.264583;-inkscape-stroke:hairline"
       id="path362"
       d="m 171.43956,49.912427 c 0.68097,-0.571241 1.3582,-1.147463 2.10262,-1.634651 0,0 -3.25487,-2.083605 -3.25487,-2.083605 v 0 c -0.75255,0.512819 -1.44395,1.101696 -2.19542,1.615496 0,0 3.34767,2.10276 3.34767,2.10276 z" />
    <path
       style="vector-effect:non-scaling-stroke;fill:#000000;stroke:#010101;stroke-width:0.264583;-inkscape-stroke:hairline"
       d="m 177.2257,48.971206 1.3814,-1.611627 h 84.26511"
       id="path420" />
    <path
       style="vector-effect:non-scaling-stroke;fill:#000000;stroke:#010101;stroke-width:0.264583;-inkscape-stroke:hairline"
       d="m 163.87222,46.323532 -1.3814,1.611627 H 78.225711"
       id="path420-3" />
    <g
       aria-label="Western"
       id="text557"
       style="font-weight:bold;font-size:70.5556px;font-family:Ebrima;-inkscape-font-specification:'Ebrima, Bold';vector-effect:non-scaling-stroke;stroke:#010101;stroke-width:0.264583;-inkscape-stroke:hairline">
      <path
         d="m 139.79103,16.019313 h 3.60288 l 2.25103,-7.1127444 h 1.44487 V 7.0524183 l 0.96738,0.8619628 v 1.9533692 h -1.71772 l -2.25723,7.1127437 h -3.00757 z m 0.36587,-8.9668947 0.91777,0.7999511 v 1.0541992 h 1.37046 l -0.81235,2.8711424 z m -6.92051,8.9668947 h 3.44165 l 1.35806,-4.613672 0.5457,1.90376 -1.0914,3.671093 h -2.84634 z m 0.82476,-7.1127444 h 1.42007 V 7.0524183 l 0.71313,0.6945312 -1.25884,4.0927735 z m -4.81211,-1.8541503 h 5.79189 v 1.407666 h -1.5875 l 1.49449,4.8803217 1.92236,-6.2879877 h 2.79053 l 1.99677,6.3003907 1.35806,-4.8927247 h -1.50068 v -1.407666 h 5.13457 v 1.407666 h -1.32085 l -2.26343,7.1127437 h -3.27422 l -1.76733,-5.7050777 -1.67432,5.7050777 h -3.26802 l -2.36264,-7.1127437 h -1.46968 z m 0,1.8541503 h 1.10381 l 0.30385,0.9611817 h -0.21704 z"
         style="font-weight:normal;font-stretch:semi-expanded;font-size:12.7px;font-family:'Vineta BT';-inkscape-font-specification:'Vineta BT, Semi-Expanded'"
         id="path976" />
      <path
         d="m 158.54957,14.127955 q -0.47749,1.525489 -1.68671,2.350244 -1.20303,0.824756 -2.97657,0.824756 -1.27124,0 -2.36264,-0.446484 -1.08521,-0.440283 -1.87896,-1.283643 0.65733,0.365869 1.45108,0.545703 0.79995,0.179834 1.76113,0.179834 2.15801,0 3.29902,-0.713134 1.14102,-0.713135 1.47588,-2.257227 z m -2.10839,-4.8803219 q 1.17202,0.8123539 1.71772,1.6805179 0.5519,0.868164 0.5519,1.903759 0,0.148828 -0.0124,0.36587 -0.0124,0.217041 -0.0372,0.483691 l -0.97359,-0.849561 q 0.0124,-0.136425 0.0186,-0.272851 0.006,-0.136426 0.006,-0.365869 0,-0.874366 -0.31006,-1.581299 -0.30386,-0.7131349 -0.96118,-1.3642579 z m -4.52066,4.0431639 1.87896,-0.0062 q -0.0372,0.5271 -0.26045,0.768945 -0.21704,0.235645 -0.65733,0.235645 -0.45268,0 -0.70073,-0.254248 -0.24184,-0.254248 -0.26045,-0.744142 z m -0.50849,-0.446484 q 0,0.03721 -0.006,0.111621 -0.006,0.07441 -0.006,0.117822 0,0.787549 0.37207,1.209229 0.37828,0.415478 1.08521,0.415478 0.66973,0 1.02319,-0.341064 0.35347,-0.341065 0.35347,-0.979786 v -0.09302 h 2.90835 q -0.35967,1.339453 -1.38286,1.953369 -1.01699,0.613916 -2.90215,0.613916 -2.20142,0 -3.29282,-0.886768 -1.08521,-0.892968 -1.08521,-2.691308 0,-1.792139 1.09761,-2.6851075 1.09761,-0.8991699 3.28042,-0.8991699 2.20141,0 3.28662,0.8929688 1.0852,0.8929686 1.0852,2.7037106 0,0.08682 -0.006,0.204639 -0.006,0.117822 -0.0186,0.347266 z m 0.50849,-1.581299 q 0.031,-0.465088 0.27905,-0.713135 0.24805,-0.248047 0.68213,-0.248047 0.45269,0 0.66353,0.235645 0.21704,0.229443 0.22944,0.725537 z m -0.5333,0.446484 h 2.90835 v -0.21084 q 0,-0.830957 -0.35967,-1.240234 -0.35967,-0.4154784 -1.079,-0.4154784 -0.68213,0 -1.07901,0.4712894 -0.39067,0.471289 -0.39067,1.296045 z"
         style="font-weight:normal;font-stretch:semi-expanded;font-size:12.7px;font-family:'Vineta BT';-inkscape-font-specification:'Vineta BT, Semi-Expanded'"
         id="path978" />
      <path
         d="m 162.66095,13.576051 1.66192,0.217041 q 0.006,0.0062 0.0806,0.02481 0.0744,0.0186 0.0744,0.0248 v 0.0186 q -0.16123,0.07441 -0.29146,0.10542 -0.12402,0.03101 -0.25425,0.03101 -0.10542,0 -0.34726,-0.04341 -0.0248,-0.0062 -0.031,-0.0062 -0.34106,-0.07441 -0.5457,-0.155029 -0.19844,-0.08682 -0.34727,-0.217041 z m -3.06958,2.443262 h 2.81533 v -0.266651 q 0.60152,0.285254 1.23404,0.427881 0.63872,0.142627 1.30845,0.142627 1.6247,0 2.55488,-0.756543 0.93637,-0.756543 0.93637,-2.06499 0,-0.675928 -0.34726,-1.172022 -0.34107,-0.496093 -1.0728,-0.874365 h 1.12861 V 8.956178 l 0.96738,0.8991699 v 2.5548831 h -0.76274 q 0.48989,0.427881 0.71933,0.886767 0.22945,0.458887 0.22945,1.016992 0,1.209229 -0.94878,1.984375 -0.94878,0.775147 -2.45567,0.775147 -0.63872,0 -1.25883,-0.179834 -0.62012,-0.173633 -1.26504,-0.533301 v 0.620117 h -2.33784 z m 4.86172,-5.18418 -1.38286,-0.204639 q -0.0186,0 -0.0744,-0.0186 -0.0558,-0.02481 -0.0558,-0.03721 0.14882,-0.07441 0.26044,-0.09922 0.11783,-0.03101 0.23565,-0.03101 0.0558,0 0.19224,0.0186 0.0248,0 0.0372,0.0062 0.20464,0.04341 0.39068,0.130225 0.18603,0.08682 0.39687,0.235644 z m -2.48667,4.117578 v 0.620117 h -2.37505 v -2.095996 h 2.18282 q 0.46508,0.471289 1.04799,0.713135 0.58291,0.241846 1.27744,0.241846 0.47129,0 0.70694,-0.142627 0.24184,-0.142627 0.24184,-0.415479 0,-0.241845 -0.19223,-0.365869 -0.19224,-0.130225 -0.69453,-0.21084 l -2.38745,-0.341064 q -1.14722,-0.161231 -1.72393,-0.669727 -0.57671,-0.508496 -0.57671,-1.364258 0,-1.0231929 0.82476,-1.6433101 0.82475,-0.6263183 2.18901,-0.6263183 0.78135,0 1.45107,0.2232422 0.67593,0.217041 1.35186,0.68833 V 8.956178 h 2.41226 v 2.058789 h -2.32544 q -0.45269,-0.483691 -1.00459,-0.744141 -0.54571,-0.260449 -1.09761,-0.260449 -0.40308,0 -0.63872,0.148828 -0.22945,0.148828 -0.22945,0.396875 0,0.248047 0.16744,0.365869 0.17363,0.111622 0.83715,0.204639 l 2.12081,0.31626 q 1.20922,0.186035 1.81074,0.731738 0.60151,0.539502 0.60151,1.457276 0,1.035595 -0.81235,1.649511 -0.80615,0.607715 -2.18281,0.607715 -0.84336,0 -1.61231,-0.241846 -0.76274,-0.235644 -1.37046,-0.694531 z"
         style="font-weight:normal;font-stretch:semi-expanded;font-size:12.7px;font-family:'Vineta BT';-inkscape-font-specification:'Vineta BT, Semi-Expanded'"
         id="path980" />
      <path
         d="m 175.44157,14.165162 0.93637,0.731739 v 2.083593 h -2.53628 q -0.45268,0 -0.86196,-0.167431 -0.40307,-0.167432 -1.13481,-0.694532 l -0.62012,-0.458886 q 0.27285,0.192236 0.59531,0.272851 0.32246,0.08682 0.94258,0.08682 h 0.24185 2.43706 z m -1.5875,-5.6554684 V 7.0896253 l 0.86196,0.8247558 v 0.5953125 z m 1.5875,0.4464844 0.93637,1.0169922 v 1.8169438 h -1.66191 v 1.928564 h -0.60771 q -0.12403,0 -0.19224,-0.06201 -0.062,-0.06201 -0.062,-0.179834 V 10.81033 h 1.5875 z m -5.04156,2.604492 -0.89296,-0.750342 h 0.89296 z m 4.59507,2.604492 v 1.407666 h -2.25722 q -1.0356,0 -1.45108,-0.396875 -0.41548,-0.396875 -0.41548,-1.345654 v -3.466455 h -1.36425 V 8.956178 h 1.36425 V 7.9887952 l 2.52388,-0.8991699 V 8.956178 h 1.55029 v 1.407666 h -1.55029 v 3.162598 q 0,0.353466 0.13643,0.496093 0.13642,0.142627 0.45888,0.142627 z"
         style="font-weight:normal;font-stretch:semi-expanded;font-size:12.7px;font-family:'Vineta BT';-inkscape-font-specification:'Vineta BT, Semi-Expanded'"
         id="path982" />
      <path
         d="m 187.19899,14.127955 q -0.47749,1.525489 -1.68672,2.350244 -1.20303,0.824756 -2.97656,0.824756 -1.27124,0 -2.36265,-0.446484 -1.0852,-0.440283 -1.87895,-1.283643 0.65732,0.365869 1.45107,0.545703 0.79995,0.179834 1.76113,0.179834 2.15801,0 3.29903,-0.713134 1.14101,-0.713135 1.47588,-2.257227 z m -2.1084,-4.8803219 q 1.17202,0.8123539 1.71773,1.6805179 0.5519,0.868164 0.5519,1.903759 0,0.148828 -0.0124,0.36587 -0.0124,0.217041 -0.0372,0.483691 l -0.97358,-0.849561 q 0.0124,-0.136425 0.0186,-0.272851 0.006,-0.136426 0.006,-0.365869 0,-0.874366 -0.31006,-1.581299 -0.30385,-0.7131349 -0.96118,-1.3642579 z m -4.52065,4.0431639 1.87895,-0.0062 q -0.0372,0.5271 -0.26045,0.768945 -0.21704,0.235645 -0.65732,0.235645 -0.45269,0 -0.70073,-0.254248 -0.24185,-0.254248 -0.26045,-0.744142 z m -0.5085,-0.446484 q 0,0.03721 -0.006,0.111621 -0.006,0.07441 -0.006,0.117822 0,0.787549 0.37207,1.209229 0.37827,0.415478 1.0852,0.415478 0.66973,0 1.0232,-0.341064 0.35346,-0.341065 0.35346,-0.979786 v -0.09302 h 2.90835 q -0.35966,1.339453 -1.38286,1.953369 -1.01699,0.613916 -2.90215,0.613916 -2.20141,0 -3.29282,-0.886768 -1.0852,-0.892968 -1.0852,-2.691308 0,-1.792139 1.0976,-2.6851075 1.09761,-0.8991699 3.28042,-0.8991699 2.20142,0 3.28663,0.8929688 1.0852,0.8929686 1.0852,2.7037106 0,0.08682 -0.006,0.204639 -0.006,0.117822 -0.0186,0.347266 z m 0.5085,-1.581299 q 0.031,-0.465088 0.27905,-0.713135 0.24805,-0.248047 0.68213,-0.248047 0.45269,0 0.66352,0.235645 0.21705,0.229443 0.22945,0.725537 z m -0.5333,0.446484 h 2.90835 v -0.21084 q 0,-0.830957 -0.35967,-1.240234 -0.35967,-0.4154784 -1.07901,-0.4154784 -0.68212,0 -1.079,0.4712894 -0.39067,0.471289 -0.39067,1.296045 z"
         style="font-weight:normal;font-stretch:semi-expanded;font-size:12.7px;font-family:'Vineta BT';-inkscape-font-specification:'Vineta BT, Semi-Expanded'"
         id="path984" />
      <path
         d="m 188.03615,15.572828 v -1.407666 h 1.56269 v -3.801318 h -1.56269 V 8.956178 h 4.06177 v 0.7751465 q 0.5519,-0.5333008 1.17822,-0.7999512 0.62632,-0.2666504 1.31465,-0.2666504 0.88056,0 1.34565,0.5333008 0.46509,0.5270996 0.46509,1.5378903 v 1.32085 h -2.46187 v -0.384473 q 0,-0.533301 -0.17983,-0.768945 -0.17363,-0.235645 -0.57051,-0.235645 -0.57671,0 -0.84336,0.458887 -0.26045,0.458887 -0.26045,1.500684 v 1.53789 h 1.5875 v 1.407666 z m 1.11621,-3.795117 -1.11621,-0.967383 h 1.11621 z m -1.11621,4.241602 h 6.07095 v -1.854151 l 0.97358,0.706934 v 2.108398 h -5.64927 z m 8.81186,-3.522266 v -1.48208 q 0,-0.892969 -0.14262,-1.2960449 -0.14263,-0.4092773 -0.47749,-0.7627441 l 0.83715,0.7379394 q 0.42168,0.3658696 0.58912,0.7751466 0.17363,0.409277 0.17363,1.283642 v 1.711524 h -2.70371 l -1.18443,-0.967383 z m -3.33623,1.221631 H 192.532 v -1.637109 q 0,-0.471289 0.15503,-0.731739 0.16123,-0.260449 0.45268,-0.260449 0.21084,0 0.29146,0.173633 0.0806,0.167432 0.0806,0.781348 z"
         style="font-weight:normal;font-stretch:semi-expanded;font-size:12.7px;font-family:'Vineta BT';-inkscape-font-specification:'Vineta BT, Semi-Expanded'"
         id="path986" />
      <path
         d="m 208.39459,13.718678 v -2.48667 q 0,-0.675928 -0.16743,-1.147217 -0.16123,-0.47749 -0.5581,-0.9611814 1.0666,0.8371582 1.38286,1.3766604 0.32246,0.539502 0.32246,1.463476 v 1.754932 z m -2.92075,2.300635 h 4.49585 v -1.854151 l 0.96118,0.731739 v 2.083593 h -4.254 z m -7.14995,0 h 5.74229 v -1.854151 l 0.96118,0.669727 v 2.145605 h -5.30821 z m 4.50825,-2.300635 v -1.196826 q 0,-0.762744 0.35347,-1.203028 0.35347,-0.446484 0.95498,-0.446484 0.44028,0 0.66973,0.241846 0.22944,0.235644 0.22944,0.68833 0,0.03101 -0.006,0.09302 -0.006,0.05581 -0.006,0.08062 -0.17364,-0.06821 -0.31626,-0.09922 -0.14263,-0.03721 -0.26665,-0.03721 -0.35347,0 -0.5023,0.235644 -0.14262,0.235645 -0.14262,0.818555 v 0.824756 z m -3.39204,-1.940967 -1.11621,-0.967383 h 1.11621 z m -1.11621,3.795117 v -1.407666 h 1.5627 v -3.801318 h -1.5627 V 8.956178 h 4.06177 v 0.8991699 q 0.58911,-0.5829101 1.33325,-0.8743652 0.75034,-0.2914551 1.66812,-0.2914551 1.24643,0 1.91616,0.6449219 0.66972,0.6387207 0.66972,1.8293455 v 3.001367 h 1.5503 v 1.407666 h -4.04937 v -3.224609 q 0,-1.178223 -0.27285,-1.550293 -0.27285,-0.378271 -0.93638,-0.378271 -0.84336,0 -1.36425,0.551904 -0.5147,0.545703 -0.5147,1.451074 v 1.742529 h 1.23403 v 1.407666 z"
         style="font-weight:normal;font-stretch:semi-expanded;font-size:12.7px;font-family:'Vineta BT';-inkscape-font-specification:'Vineta BT, Semi-Expanded'"
         id="path988" />
    </g>
    <g
       aria-label="Onion"
       id="text557-8"
       style="font-stretch:semi-expanded;font-size:12.7px;font-family:'Vineta BT';-inkscape-font-specification:'Vineta BT, Semi-Expanded';vector-effect:non-scaling-stroke;stroke:#010101;stroke-width:0.264583;-inkscape-stroke:hairline">
      <path
         d="m 152.12409,21.924476 q 1.46968,1.016992 2.05879,2.015381 0.59531,0.998388 0.59531,2.480469 0,1.196826 -0.40308,2.176611 -0.40307,0.979785 -1.18442,1.699121 -0.74414,0.682129 -1.95957,1.091406 -1.20923,0.415479 -2.51148,0.415479 -1.22163,0 -2.36264,-0.396875 -1.14102,-0.390674 -2.26963,-1.203028 0.81235,0.322461 1.69912,0.471289 0.89297,0.15503 1.99678,0.15503 3.07578,0 4.52685,-1.209229 1.45108,-1.21543 1.45108,-3.782715 0,-1.364257 -0.38448,-2.263427 -0.37827,-0.89917 -1.25263,-1.649512 z m -4.99195,6.703467 q -0.80615,-0.167432 -1.17822,-0.830957 -0.37207,-0.663526 -0.37207,-1.947168 0,-1.475879 0.5209,-2.145606 0.5209,-0.675927 1.64951,-0.675927 0.83096,0 1.28984,0.328662 0.45889,0.328662 0.70694,1.085205 -0.5023,-0.217041 -0.91777,-0.322461 -0.40928,-0.111621 -0.74415,-0.111621 -0.80615,0 -1.14721,0.446484 -0.34107,0.446484 -0.34107,1.53169 0,0.750341 0.13023,1.389062 0.13022,0.638721 0.40307,1.252637 z m -1.99057,-2.778125 q 0,1.711523 0.61391,2.474267 0.62012,0.762744 1.99678,0.762744 1.38286,0 1.99678,-0.762744 0.62012,-0.762744 0.62012,-2.474267 0,-1.711524 -0.62012,-2.480469 -0.62012,-0.768945 -1.99678,-0.768945 -1.37046,0 -1.99057,0.768945 -0.62012,0.768945 -0.62012,2.480469 z m -2.95176,0 q 0,-2.399854 1.30845,-3.472656 1.31465,-1.072803 4.254,-1.072803 2.93316,0 4.2478,1.079004 1.31465,1.072802 1.31465,3.466455 0,2.387451 -1.31465,3.460254 -1.30844,1.072802 -4.2478,1.072802 -2.94556,0 -4.254,-1.066601 -1.30845,-1.072803 -1.30845,-3.466455 z"
         id="path991" />
      <path
         d="m 165.4194,28.237269 v -2.48667 q 0,-0.675928 -0.16743,-1.147217 -0.16123,-0.47749 -0.55811,-0.961181 1.0666,0.837158 1.38286,1.37666 0.32246,0.539502 0.32246,1.463476 v 1.754932 z m -2.92075,2.300635 h 4.49585 v -1.854151 l 0.96118,0.731738 v 2.083594 h -4.254 z m -7.14995,0 h 5.74228 v -1.854151 l 0.96118,0.669727 v 2.145605 h -5.3082 z m 4.50825,-2.300635 v -1.196826 q 0,-0.762744 0.35347,-1.203028 0.35346,-0.446484 0.95498,-0.446484 0.44028,0 0.66972,0.241846 0.22945,0.235644 0.22945,0.68833 0,0.03101 -0.006,0.09302 -0.006,0.05581 -0.006,0.08062 -0.17363,-0.06821 -0.31626,-0.09922 -0.14262,-0.03721 -0.26665,-0.03721 -0.35346,0 -0.50229,0.235644 -0.14263,0.235645 -0.14263,0.818555 v 0.824756 z m -3.39204,-1.940967 -1.11621,-0.967383 h 1.11621 z m -1.11621,3.795117 v -1.407666 h 1.56269 v -3.801318 h -1.56269 v -1.407666 h 4.06176 v 0.89917 q 0.58912,-0.58291 1.33326,-0.874365 0.75034,-0.291455 1.66811,-0.291455 1.24644,0 1.91616,0.644921 0.66973,0.638721 0.66973,1.829346 v 3.001367 h 1.55029 v 1.407666 h -4.04936 V 26.86681 q 0,-1.178223 -0.27285,-1.550293 -0.27286,-0.378272 -0.93638,-0.378272 -0.84336,0 -1.36426,0.551905 -0.5147,0.545703 -0.5147,1.451074 v 1.742529 h 1.23404 v 1.407666 z"
         id="path993" />
      <path
         d="m 170.02687,23.065492 v -1.494483 h 2.43706 v 1.494483 z m 2.88355,0 v -1.494483 l 0.96738,0.89917 v 1.475879 z m -0.44649,5.618261 h 1.5875 v 1.407666 h -5.64927 v -1.407666 h 1.5627 v -3.801318 h -1.5627 v -1.407666 h 4.06177 z m 0.44649,-0.446484 v -4.675684 l 0.96738,0.880567 v 3.795117 z m -4.50826,2.300635 h 6.09576 v -1.854151 l 0.96738,0.669727 v 2.145605 h -5.66787 z m 1.11622,-4.241602 -1.11622,-0.967383 h 1.11622 z"
         id="path995" />
      <path
         d="m 183.83068,23.766224 q 1.17822,0.824756 1.73633,1.705322 0.5643,0.880567 0.5643,1.916162 0,1.934766 -1.35185,3.175 -1.35186,1.240235 -3.51607,1.240235 -1.24643,0 -2.28203,-0.42168 -1.02939,-0.415479 -1.94717,-1.289844 0.65733,0.365869 1.45108,0.545703 0.79995,0.179834 1.76113,0.179834 2.44326,0 3.65249,-1.00459 1.21543,-1.010791 1.21543,-3.050976 0,-0.905371 -0.29766,-1.593701 -0.29145,-0.68833 -0.98598,-1.401465 z m -3.36724,5.016748 q -0.0124,0 -0.0372,0.0062 -0.21084,0.0186 -0.31626,0.0186 -0.45888,0 -0.68212,-0.489893 -0.22325,-0.489892 -0.22325,-1.513086 0,-1.116211 0.23565,-1.550293 0.24184,-0.434082 0.81855,-0.434082 0.45889,0 0.68213,0.291455 0.22944,0.291455 0.26045,0.911573 -0.15503,-0.08682 -0.27285,-0.124024 -0.11162,-0.03721 -0.22324,-0.03721 -0.22325,0 -0.33487,0.192236 -0.11162,0.186036 -0.11162,0.570508 0,0.58291 0.0496,1.128613 0.0558,0.545704 0.15503,1.029395 z m -1.69912,-1.990576 q 0,1.296045 0.34106,1.85415 0.34727,0.558106 1.14102,0.558106 0.79375,0 1.14102,-0.558106 0.34726,-0.558105 0.34726,-1.85415 0,-1.302246 -0.34726,-1.860352 -0.34727,-0.558105 -1.14102,-0.558105 -0.79375,0 -1.14102,0.558105 -0.34106,0.558106 -0.34106,1.860352 z m 5.85391,0 q 0,1.816943 -1.07901,2.69751 -1.079,0.880566 -3.29282,0.880566 -2.20762,0 -3.28662,-0.880566 -1.079,-0.880567 -1.079,-2.69751 0,-1.804541 1.0852,-2.691309 1.09141,-0.892968 3.28042,-0.892968 2.21382,0 3.29282,0.880566 1.07901,0.880566 1.07901,2.703711 z"
         id="path997" />
      <path
         d="m 196.84694,28.237269 v -2.48667 q 0,-0.675928 -0.16743,-1.147217 -0.16123,-0.47749 -0.55811,-0.961181 1.0666,0.837158 1.38286,1.37666 0.32247,0.539502 0.32247,1.463476 v 1.754932 z m -2.92075,2.300635 h 4.49585 v -1.854151 l 0.96118,0.731738 v 2.083594 h -4.254 z m -7.14995,0 h 5.74228 v -1.854151 l 0.96118,0.669727 v 2.145605 h -5.3082 z m 4.50825,-2.300635 v -1.196826 q 0,-0.762744 0.35347,-1.203028 0.35346,-0.446484 0.95498,-0.446484 0.44028,0 0.66972,0.241846 0.22945,0.235644 0.22945,0.68833 0,0.03101 -0.006,0.09302 -0.006,0.05581 -0.006,0.08062 -0.17363,-0.06821 -0.31626,-0.09922 -0.14262,-0.03721 -0.26665,-0.03721 -0.35346,0 -0.50229,0.235644 -0.14263,0.235645 -0.14263,0.818555 v 0.824756 z m -3.39204,-1.940967 -1.11621,-0.967383 h 1.11621 z m -1.11621,3.795117 v -1.407666 h 1.56269 v -3.801318 h -1.56269 v -1.407666 h 4.06177 v 0.89917 q 0.58911,-0.58291 1.33325,-0.874365 0.75034,-0.291455 1.66811,-0.291455 1.24644,0 1.91616,0.644921 0.66973,0.638721 0.66973,1.829346 v 3.001367 h 1.55029 v 1.407666 h -4.04936 V 26.86681 q 0,-1.178223 -0.27285,-1.550293 -0.27285,-0.378272 -0.93638,-0.378272 -0.84336,0 -1.36426,0.551905 -0.51469,0.545703 -0.51469,1.451074 v 1.742529 h 1.23403 v 1.407666 z"
         id="path999" />
    </g>
  </g>
</svg>
